<svg xmlns="http://www.w3.org/2000/svg" width="32" height="32" viewBox="0 0 40 40" fill="none">
  <defs>
    <linearGradient id="fg" x1="0%" y1="0%" x2="100%" y2="100%">
      <stop offset="0%" stop-color="#00d4aa"/>
      <stop offset="100%" stop-color="#00b894"/>
    </linearGradient>
    <linearGradient id="shine" x1="0%" y1="0%" x2="0%" y2="100%">
      <stop offset="0%" stop-color="rgba(255,255,255,0.25)"/>
      <stop offset="60%" stop-color="rgba(255,255,255,0.05)"/>
      <stop offset="100%" stop-color="transparent"/>
    </linearGradient>
  </defs>
  <path d="M20 3.5L7 8.5v10c0 8 6 14.5 13 16 7-1.5 13-8 13-16v-10L20 3.5z" fill="url(#fg)" stroke="rgba(0,212,170,0.5)" stroke-width="0.6" stroke-linejoin="round"/>
  <path d="M20 6L9 10.5v7.5c0 6 4.5 11 11 12.5V6z" fill="url(#shine)"/>
  <path d="M12 13.5h16v1.5H12v-1.5zm0 4.25h16v1.5H12v-1.5zm0 4.25h16v1.5H12v-1.5z" fill="#0d1117"/>
</svg>
